<svg width="20" height="20" viewBox="0 0 20 20" fill="none" xmlns="http://www.w3.org/2000/svg">
<path d="M18.5021 3.44824H1.49785C0.670586 3.44824 0 4.11883 0 4.94609V15.0539C0 15.8811 0.670586 16.5517 1.49785 16.5517H18.5021C19.3294 16.5517 20 15.8811 20 15.0539V4.94609C20 4.11883 19.3294 3.44824 18.5021 3.44824Z" fill="#F5F5F5"/>
<path d="M0.0820312 4.45621H19.9172C19.7143 3.86961 19.1574 3.44824 18.5018 3.44824H1.4975C0.841875 3.44824 0.285039 3.86961 0.0820312 4.45621Z" fill="#FF4B55"/>
<path d="M20 7.47998H0V8.48791H20V7.47998Z" fill="#FF4B55"/>
<path d="M20 5.46387H0V6.4718H20V5.46387Z" fill="#FF4B55"/>
<path d="M0 10.1592C0 10.3496 0.154414 10.5041 0.344844 10.5041H20V9.49609H0V10.1592Z" fill="#FF4B55"/>
<path d="M20 13.5283H0V14.5363H20V13.5283Z" fill="#FF4B55"/>
<path d="M19.9173 15.5439H0.0820312C0.285039 16.1305 0.841914 16.5519 1.4975 16.5519H18.5018C19.1574 16.5519 19.7143 16.1305 19.9173 15.5439Z" fill="#FF4B55"/>
<path d="M20 11.5122H0V12.5201H20V11.5122Z" fill="#FF4B55"/>
<path d="M0.344844 10.504H8.96555C9.15598 10.504 9.31039 10.3496 9.31039 10.1591V3.79309C9.31039 3.60262 9.15598 3.44824 8.96555 3.44824H1.49785C0.670586 3.44828 0 4.11887 0 4.94613V10.1591C0 10.3496 0.154414 10.504 0.344844 10.504Z" fill="#41479B"/>
<path d="M0.968217 4.23952L1.04455 4.46842L1.28583 4.47026C1.31708 4.47053 1.33001 4.51038 1.3049 4.52893L1.1108 4.67225L1.18361 4.90229C1.19306 4.93206 1.15912 4.95674 1.13369 4.93854L0.937397 4.79827L0.741108 4.93858C0.715678 4.95678 0.681811 4.93209 0.691186 4.90233L0.763998 4.67229L0.569897 4.52897C0.54478 4.51038 0.557709 4.47053 0.588959 4.4703L0.830248 4.46846L0.906576 4.23956C0.91642 4.20987 0.958295 4.20987 0.968217 4.23952Z" fill="#F5F5F5"/>
<path d="M0.968217 5.43675L1.04455 5.66566L1.28583 5.6675C1.31708 5.66777 1.33001 5.70757 1.3049 5.72617L1.1108 5.86953L1.18361 6.09957C1.19306 6.12933 1.15912 6.15402 1.13369 6.13582L0.937397 5.99554L0.741108 6.13585C0.715678 6.15402 0.681811 6.12937 0.691186 6.0996L0.763998 5.86957L0.569897 5.72621C0.54478 5.70761 0.557709 5.66781 0.588959 5.66753L0.830248 5.6657L0.906576 5.43679C0.91642 5.40714 0.958295 5.40714 0.968217 5.43675Z" fill="#F5F5F5"/>
<path d="M0.968217 6.63454L1.04455 6.86344L1.28583 6.86528C1.31708 6.86555 1.33001 6.90536 1.3049 6.92395L1.1108 7.06731L1.18361 7.29735C1.19306 7.32711 1.15912 7.3518 1.13369 7.3336L0.937397 7.19333L0.741108 7.33364C0.715678 7.3518 0.681811 7.32719 0.691186 7.29739L0.763998 7.06735L0.569897 6.92399C0.54478 6.9054 0.557709 6.86559 0.588959 6.86532L0.830248 6.86348L0.906576 6.63458C0.91642 6.60489 0.958295 6.60489 0.968217 6.63454Z" fill="#F5F5F5"/>
<path d="M0.968217 7.8318L1.04455 8.06071L1.28583 8.06254C1.31708 8.06282 1.33001 8.10266 1.3049 8.12122L1.1108 8.26457L1.18361 8.49461C1.19306 8.52438 1.15912 8.54907 1.13369 8.53086L0.937397 8.39059L0.741108 8.5309C0.715678 8.54907 0.681811 8.52442 0.691186 8.49465L0.763998 8.26461L0.569897 8.12125C0.54478 8.10274 0.557709 8.06286 0.588959 8.06258L0.830248 8.06075L0.906576 7.83184C0.91642 7.80215 0.958295 7.80215 0.968217 7.8318Z" fill="#F5F5F5"/>
<path d="M0.968217 9.02904L1.04455 9.25794L1.28583 9.25978C1.31708 9.26005 1.33001 9.29986 1.3049 9.31845L1.1108 9.46181L1.18361 9.69185C1.19306 9.72162 1.15912 9.7463 1.13369 9.7281L0.937397 9.58783L0.741108 9.72814C0.715678 9.7463 0.681811 9.72166 0.691186 9.69189L0.763998 9.46185L0.569897 9.31849C0.54478 9.2999 0.557709 9.26009 0.588959 9.25982L0.830248 9.25798L0.906576 9.02908C0.91642 8.99943 0.958295 8.99943 0.968217 9.02904Z" fill="#F5F5F5"/>
<path d="M1.8979 4.82641L1.97423 5.05531L2.21552 5.05715C2.24677 5.05742 2.2597 5.09727 2.23458 5.11582L2.04048 5.25918L2.1133 5.48922C2.12275 5.51898 2.0888 5.54367 2.06337 5.52547L1.86708 5.38516L1.6708 5.52547C1.64537 5.54363 1.6115 5.51898 1.62087 5.48922L1.69369 5.25918L1.49958 5.11582C1.47447 5.09723 1.4874 5.05742 1.51865 5.05715L1.75994 5.05531L1.83626 4.82641C1.84611 4.7968 1.88802 4.7968 1.8979 4.82641Z" fill="#F5F5F5"/>
<path d="M1.8979 6.02419L1.97423 6.2531L2.21552 6.25493C2.24677 6.25521 2.2597 6.29505 2.23458 6.3136L2.04048 6.45696L2.1133 6.687C2.12275 6.71677 2.0888 6.74146 2.06337 6.72325L1.86708 6.58294L1.6708 6.72325C1.64537 6.74142 1.6115 6.71681 1.62087 6.687L1.69369 6.45696L1.49958 6.3136C1.47447 6.29509 1.4874 6.25521 1.51865 6.25493L1.75994 6.2531L1.83626 6.02419C1.84611 5.99454 1.88802 5.99454 1.8979 6.02419Z" fill="#F5F5F5"/>
<path d="M1.8979 7.22146L1.97423 7.45036L2.21552 7.4522C2.24677 7.45247 2.2597 7.49228 2.23458 7.51087L2.04048 7.65423L2.1133 7.88427C2.12275 7.91403 2.0888 7.93872 2.06337 7.92052L1.86708 7.78021L1.6708 7.92052C1.64537 7.93868 1.6115 7.91403 1.62087 7.88427L1.69369 7.65423L1.49958 7.51087C1.47447 7.49228 1.4874 7.45247 1.51865 7.4522L1.75994 7.45036L1.83626 7.22146C1.84611 7.19181 1.88802 7.19181 1.8979 7.22146Z" fill="#F5F5F5"/>
<path d="M1.8979 8.41869L1.97423 8.6476L2.21552 8.64943C2.24677 8.64971 2.2597 8.68951 2.23458 8.70811L2.04048 8.85146L2.1133 9.0815C2.12275 9.11127 2.0888 9.13596 2.06337 9.11775L1.86708 8.97744L1.6708 9.11775C1.64537 9.13596 1.6115 9.11127 1.62087 9.0815L1.69369 8.85146L1.49958 8.70811C1.47447 8.68951 1.4874 8.64971 1.51865 8.64943L1.75994 8.6476L1.83626 8.41869C1.84611 8.38908 1.88802 8.38908 1.8979 8.41869Z" fill="#F5F5F5"/>
<path d="M2.82759 4.23952L2.90392 4.46843L3.14521 4.47026C3.17646 4.47054 3.18939 4.51038 3.16427 4.52894L2.97017 4.67226L3.04298 4.90229C3.05244 4.93206 3.01849 4.95675 2.99306 4.93854L2.79677 4.79823L2.60048 4.93854C2.57505 4.95675 2.54119 4.93206 2.55056 4.90229L2.62337 4.67226L2.42927 4.52894C2.40415 4.51034 2.41708 4.4705 2.44833 4.47026L2.68962 4.46843L2.76595 4.23952C2.7758 4.20987 2.81771 4.20987 2.82759 4.23952Z" fill="#F5F5F5"/>
<path d="M2.82759 5.43676L2.90392 5.66566L3.14521 5.6675C3.17646 5.66777 3.18939 5.70758 3.16427 5.72617L2.97017 5.86953L3.04298 6.09957C3.05244 6.12934 3.01849 6.15402 2.99306 6.13582L2.79677 5.99551L2.60048 6.13582C2.57505 6.15398 2.54119 6.12934 2.55056 6.09957L2.62337 5.86953L2.42927 5.72617C2.40415 5.70758 2.41708 5.66777 2.44833 5.6675L2.68962 5.66566L2.76595 5.43676C2.7758 5.40715 2.81771 5.40715 2.82759 5.43676Z" fill="#F5F5F5"/>
<path d="M2.82759 6.63454L2.90392 6.86345L3.14521 6.86528C3.17646 6.86556 3.18939 6.90536 3.16427 6.92396L2.97017 7.06731L3.04298 7.29735C3.05244 7.32712 3.01849 7.35181 2.99306 7.3336L2.79677 7.19329L2.60048 7.3336C2.57505 7.35177 2.54119 7.32716 2.55056 7.29735L2.62337 7.06731L2.42927 6.92396C2.40415 6.90536 2.41708 6.86556 2.44833 6.86528L2.68962 6.86345L2.76595 6.63454C2.7758 6.60489 2.81771 6.60489 2.82759 6.63454Z" fill="#F5F5F5"/>
<path d="M2.82759 7.83181L2.90392 8.06071L3.14521 8.06255C3.17646 8.06282 3.18939 8.10267 3.16427 8.12122L2.97017 8.26458L3.04298 8.49462C3.05244 8.52438 3.01849 8.54907 2.99306 8.53087L2.79677 8.39056L2.60048 8.53087C2.57505 8.54903 2.54119 8.52438 2.55056 8.49462L2.62337 8.26458L2.42927 8.12122C2.40415 8.1027 2.41708 8.06282 2.44833 8.06255L2.68962 8.06071L2.76595 7.83181C2.7758 7.80216 2.81771 7.80216 2.82759 7.83181Z" fill="#F5F5F5"/>
<path d="M2.82759 9.02904L2.90392 9.25795L3.14521 9.25979C3.17646 9.26006 3.18939 9.29986 3.16427 9.31846L2.97017 9.46182L3.04298 9.69185C3.05244 9.72162 3.01849 9.74631 2.99306 9.72811L2.79677 9.58779L2.60048 9.72811C2.57505 9.74627 2.54119 9.72162 2.55056 9.69185L2.62337 9.46182L2.42927 9.31846C2.40415 9.29986 2.41708 9.26006 2.44833 9.25979L2.68962 9.25795L2.76595 9.02904C2.7758 8.99943 2.81771 8.99943 2.82759 9.02904Z" fill="#F5F5F5"/>
<path d="M3.75728 4.82641L3.83361 5.05531L4.0749 5.05715C4.10615 5.05742 4.11908 5.09727 4.09396 5.11582L3.89986 5.25918L3.97267 5.48922C3.98212 5.51898 3.94818 5.54367 3.92275 5.52547L3.72646 5.38516L3.53017 5.52547C3.50474 5.54363 3.47087 5.51898 3.48025 5.48922L3.55306 5.25918L3.35896 5.11582C3.33384 5.09723 3.34677 5.05742 3.37802 5.05715L3.61931 5.05531L3.69564 4.82641C3.70544 4.7968 3.7474 4.7968 3.75728 4.82641Z" fill="#F5F5F5"/>
<path d="M3.75728 6.02419L3.83361 6.2531L4.0749 6.25493C4.10615 6.25521 4.11908 6.29505 4.09396 6.3136L3.89986 6.45696L3.97267 6.687C3.98212 6.71677 3.94818 6.74146 3.92275 6.72325L3.72646 6.58294L3.53017 6.72325C3.50474 6.74142 3.47087 6.71681 3.48025 6.687L3.55306 6.45696L3.35896 6.3136C3.33384 6.29509 3.34677 6.25521 3.37802 6.25493L3.61931 6.2531L3.69564 6.02419C3.70544 5.99454 3.7474 5.99454 3.75728 6.02419Z" fill="#F5F5F5"/>
<path d="M3.75728 7.22146L3.83361 7.45036L4.0749 7.4522C4.10615 7.45247 4.11908 7.49228 4.09396 7.51087L3.89986 7.65423L3.97267 7.88427C3.98212 7.91403 3.94818 7.93872 3.92275 7.92052L3.72646 7.78021L3.53017 7.92052C3.50474 7.93868 3.47087 7.91403 3.48025 7.88427L3.55306 7.65423L3.35896 7.51087C3.33384 7.49228 3.34677 7.45247 3.37802 7.4522L3.61931 7.45036L3.69564 7.22146C3.70544 7.19181 3.7474 7.19181 3.75728 7.22146Z" fill="#F5F5F5"/>
<path d="M3.75728 8.41869L3.83361 8.6476L4.0749 8.64943C4.10615 8.64971 4.11908 8.68951 4.09396 8.70811L3.89986 8.85146L3.97267 9.0815C3.98212 9.11127 3.94818 9.13596 3.92275 9.11775L3.72646 8.97744L3.53017 9.11775C3.50474 9.13596 3.47087 9.11127 3.48025 9.0815L3.55306 8.85146L3.35896 8.70811C3.33384 8.68951 3.34677 8.64971 3.37802 8.64943L3.61931 8.6476L3.69564 8.41869C3.70544 8.38908 3.7474 8.38908 3.75728 8.41869Z" fill="#F5F5F5"/>
<path d="M4.68505 4.23952L4.76138 4.46842L5.00267 4.47026C5.03392 4.47053 5.04685 4.51038 5.02173 4.52893L4.82763 4.67225L4.90044 4.90229C4.9099 4.93206 4.87595 4.95674 4.85052 4.93854L4.65419 4.79827L4.4579 4.93858C4.43248 4.95678 4.39861 4.93209 4.40798 4.90233L4.4808 4.67229L4.28669 4.52897C4.26158 4.51038 4.27451 4.47053 4.30576 4.4703L4.54705 4.46846L4.62337 4.23956C4.63326 4.20987 4.67517 4.20987 4.68505 4.23952Z" fill="#F5F5F5"/>
<path d="M4.68505 5.43676L4.76138 5.66566L5.00267 5.6675C5.03392 5.66777 5.04685 5.70758 5.02173 5.72617L4.82763 5.86953L4.90044 6.09957C4.9099 6.12934 4.87595 6.15402 4.85052 6.13582L4.65419 5.99551L4.4579 6.13582C4.43248 6.15398 4.39861 6.12934 4.40798 6.09957L4.4808 5.86953L4.28669 5.72617C4.26158 5.70758 4.27451 5.66777 4.30576 5.6675L4.54705 5.66566L4.62337 5.43676C4.63326 5.40715 4.67517 5.40715 4.68505 5.43676Z" fill="#F5F5F5"/>
<path d="M4.68505 6.63455L4.76138 6.86345L5.00267 6.86529C5.03392 6.86556 5.04685 6.90537 5.02173 6.92396L4.82763 7.06732L4.90044 7.29736C4.9099 7.32712 4.87595 7.35181 4.85052 7.33361L4.65419 7.19326L4.4579 7.33357C4.43248 7.35173 4.39861 7.32709 4.40798 7.29732L4.4808 7.06728L4.28669 6.92392C4.26158 6.90533 4.27451 6.86552 4.30576 6.86525L4.54705 6.86341L4.62337 6.63451C4.63326 6.6049 4.67517 6.6049 4.68505 6.63455Z" fill="#F5F5F5"/>
<path d="M4.68505 7.83181L4.76138 8.06071L5.00267 8.06255C5.03392 8.06282 5.04685 8.10267 5.02173 8.12122L4.82763 8.26458L4.90044 8.49462C4.9099 8.52438 4.87595 8.54907 4.85052 8.53087L4.65419 8.39056L4.4579 8.53087C4.43248 8.54903 4.39861 8.52438 4.40798 8.49462L4.4808 8.26458L4.28669 8.12122C4.26158 8.1027 4.27451 8.06282 4.30576 8.06255L4.54705 8.06071L4.62337 7.83181C4.63326 7.80216 4.67517 7.80216 4.68505 7.83181Z" fill="#F5F5F5"/>
<path d="M4.68505 9.02904L4.76138 9.25795L5.00267 9.25979C5.03392 9.26006 5.04685 9.29986 5.02173 9.31846L4.82763 9.46182L4.90044 9.69185C4.9099 9.72162 4.87595 9.74631 4.85052 9.72811L4.65419 9.58779L4.4579 9.72811C4.43248 9.74627 4.39861 9.72162 4.40798 9.69185L4.4808 9.46182L4.28669 9.31846C4.26158 9.29986 4.27451 9.26006 4.30576 9.25979L4.54705 9.25795L4.62337 9.02904C4.63326 8.99943 4.67517 8.99943 4.68505 9.02904Z" fill="#F5F5F5"/>
<path d="M5.6147 4.82641L5.69103 5.05531L5.93232 5.05715C5.96357 5.05742 5.9765 5.09727 5.95138 5.11582L5.75728 5.25918L5.83009 5.48922C5.83955 5.51898 5.8056 5.54367 5.78017 5.52547L5.58388 5.38516L5.38759 5.52547C5.36216 5.54363 5.3283 5.51898 5.33767 5.48922L5.41048 5.25918L5.21638 5.11582C5.19126 5.09723 5.20419 5.05742 5.23544 5.05715L5.47673 5.05531L5.55306 4.82641C5.56294 4.7968 5.60482 4.7968 5.6147 4.82641Z" fill="#F5F5F5"/>
<path d="M5.6147 6.02419L5.69103 6.2531L5.93232 6.25493C5.96357 6.25521 5.9765 6.29505 5.95138 6.3136L5.75728 6.45696L5.83009 6.687C5.83955 6.71677 5.8056 6.74146 5.78017 6.72325L5.58388 6.58294L5.38759 6.72325C5.36216 6.74142 5.3283 6.71681 5.33767 6.687L5.41048 6.45696L5.21638 6.3136C5.19126 6.29509 5.20419 6.25521 5.23544 6.25493L5.47673 6.2531L5.55306 6.02419C5.56294 5.99454 5.60482 5.99454 5.6147 6.02419Z" fill="#F5F5F5"/>
<path d="M5.6147 7.22146L5.69103 7.45036L5.93232 7.4522C5.96357 7.45247 5.9765 7.49228 5.95138 7.51087L5.75728 7.65423L5.83009 7.88427C5.83955 7.91403 5.8056 7.93872 5.78017 7.92052L5.58388 7.78021L5.38759 7.92052C5.36216 7.93868 5.3283 7.91403 5.33767 7.88427L5.41048 7.65423L5.21638 7.51087C5.19126 7.49228 5.20419 7.45247 5.23544 7.4522L5.47673 7.45036L5.55306 7.22146C5.56294 7.19181 5.60482 7.19181 5.6147 7.22146Z" fill="#F5F5F5"/>
<path d="M5.6147 8.41869L5.69103 8.6476L5.93232 8.64943C5.96357 8.64971 5.9765 8.68951 5.95138 8.70811L5.75728 8.85146L5.83009 9.0815C5.83955 9.11127 5.8056 9.13596 5.78017 9.11775L5.58388 8.97744L5.38759 9.11775C5.36216 9.13596 5.3283 9.11127 5.33767 9.0815L5.41048 8.85146L5.21638 8.70811C5.19126 8.68951 5.20419 8.64971 5.23544 8.64943L5.47673 8.6476L5.55306 8.41869C5.56294 8.38908 5.60482 8.38908 5.6147 8.41869Z" fill="#F5F5F5"/>
<path d="M6.54439 4.23952L6.62072 4.46843L6.86201 4.47026C6.89326 4.47054 6.90619 4.51038 6.88107 4.52894L6.68697 4.67226L6.75978 4.90229C6.76923 4.93206 6.73529 4.95675 6.70986 4.93854L6.51357 4.79823L6.31728 4.93854C6.29185 4.95675 6.25798 4.93206 6.26736 4.90229L6.34017 4.67226L6.14607 4.52894C6.12095 4.51034 6.13388 4.4705 6.16513 4.47026L6.40642 4.46843L6.48275 4.23952C6.49255 4.20987 6.53451 4.20987 6.54439 4.23952Z" fill="#F5F5F5"/>
<path d="M6.54439 5.43676L6.62072 5.66566L6.86201 5.6675C6.89326 5.66777 6.90619 5.70758 6.88107 5.72617L6.68697 5.86953L6.75978 6.09957C6.76923 6.12934 6.73529 6.15402 6.70986 6.13582L6.51357 5.99551L6.31728 6.13582C6.29185 6.15398 6.25798 6.12934 6.26736 6.09957L6.34017 5.86953L6.14607 5.72617C6.12095 5.70758 6.13388 5.66777 6.16513 5.6675L6.40642 5.66566L6.48275 5.43676C6.49255 5.40715 6.53451 5.40715 6.54439 5.43676Z" fill="#F5F5F5"/>
<path d="M6.54439 6.63454L6.62072 6.86345L6.86201 6.86528C6.89326 6.86556 6.90619 6.90536 6.88107 6.92396L6.68697 7.06731L6.75978 7.29735C6.76923 7.32712 6.73529 7.35181 6.70986 7.3336L6.51357 7.19329L6.31728 7.3336C6.29185 7.35177 6.25798 7.32716 6.26736 7.29735L6.34017 7.06731L6.14607 6.92396C6.12095 6.90536 6.13388 6.86556 6.16513 6.86528L6.40642 6.86345L6.48275 6.63454C6.49255 6.60489 6.53451 6.60489 6.54439 6.63454Z" fill="#F5F5F5"/>
<path d="M6.54439 7.83181L6.62072 8.06071L6.86201 8.06255C6.89326 8.06282 6.90619 8.10267 6.88107 8.12122L6.68697 8.26458L6.75978 8.49462C6.76923 8.52438 6.73529 8.54907 6.70986 8.53087L6.51357 8.39056L6.31728 8.53087C6.29185 8.54903 6.25798 8.52438 6.26736 8.49462L6.34017 8.26458L6.14607 8.12122C6.12095 8.1027 6.13388 8.06282 6.16513 8.06255L6.40642 8.06071L6.48275 7.83181C6.49255 7.80216 6.53451 7.80216 6.54439 7.83181Z" fill="#F5F5F5"/>
<path d="M6.54439 9.02904L6.62072 9.25795L6.86201 9.25979C6.89326 9.26006 6.90619 9.29986 6.88107 9.31846L6.68697 9.46182L6.75978 9.69185C6.76923 9.72162 6.73529 9.74631 6.70986 9.72811L6.51357 9.58779L6.31728 9.72811C6.29185 9.74627 6.25798 9.72162 6.26736 9.69185L6.34017 9.46182L6.14607 9.31846C6.12095 9.29986 6.13388 9.26006 6.16513 9.25979L6.40642 9.25795L6.48275 9.02904C6.49255 8.99943 6.53451 8.99943 6.54439 9.02904Z" fill="#F5F5F5"/>
<path d="M7.47408 4.82641L7.5504 5.05531L7.79169 5.05715C7.82294 5.05742 7.83587 5.09727 7.81076 5.11582L7.61665 5.25918L7.68947 5.48922C7.69892 5.51898 7.66497 5.54367 7.63955 5.52547L7.44326 5.38516L7.24697 5.52547C7.22154 5.54363 7.18767 5.51898 7.19705 5.48922L7.26986 5.25918L7.07576 5.11582C7.05064 5.09723 7.06357 5.05742 7.09482 5.05715L7.33611 5.05531L7.41244 4.82641C7.42228 4.7968 7.46419 4.7968 7.47408 4.82641Z" fill="#F5F5F5"/>
<path d="M7.47408 6.02419L7.5504 6.2531L7.79169 6.25493C7.82294 6.25521 7.83587 6.29505 7.81076 6.3136L7.61665 6.45696L7.68947 6.687C7.69892 6.71677 7.66497 6.74146 7.63955 6.72325L7.44326 6.58294L7.24697 6.72325C7.22154 6.74142 7.18767 6.71681 7.19705 6.687L7.26986 6.45696L7.07576 6.3136C7.05064 6.29509 7.06357 6.25521 7.09482 6.25493L7.33611 6.2531L7.41244 6.02419C7.42228 5.99454 7.46419 5.99454 7.47408 6.02419Z" fill="#F5F5F5"/>
<path d="M7.47408 7.22146L7.5504 7.45036L7.79169 7.4522C7.82294 7.45247 7.83587 7.49228 7.81076 7.51087L7.61665 7.65423L7.68947 7.88427C7.69892 7.91403 7.66497 7.93872 7.63955 7.92052L7.44326 7.78021L7.24697 7.92052C7.22154 7.93868 7.18767 7.91403 7.19705 7.88427L7.26986 7.65423L7.07576 7.51087C7.05064 7.49228 7.06357 7.45247 7.09482 7.4522L7.33611 7.45036L7.41244 7.22146C7.42228 7.19181 7.46419 7.19181 7.47408 7.22146Z" fill="#F5F5F5"/>
<path d="M7.47408 8.41869L7.5504 8.6476L7.79169 8.64943C7.82294 8.64971 7.83587 8.68951 7.81076 8.70811L7.61665 8.85146L7.68947 9.0815C7.69892 9.11127 7.66497 9.13596 7.63955 9.11775L7.44326 8.97744L7.24697 9.11775C7.22154 9.13596 7.18767 9.11127 7.19705 9.0815L7.26986 8.85146L7.07576 8.70811C7.05064 8.68951 7.06357 8.64971 7.09482 8.64943L7.33611 8.6476L7.41244 8.41869C7.42228 8.38908 7.46419 8.38908 7.47408 8.41869Z" fill="#F5F5F5"/>
<path d="M8.40376 4.23952L8.48009 4.46843L8.72138 4.47026C8.75263 4.47054 8.76556 4.51038 8.74044 4.52894L8.54634 4.67226L8.61915 4.90229C8.62861 4.93206 8.59466 4.95675 8.56923 4.93854L8.37294 4.79823L8.17665 4.93854C8.15123 4.95675 8.11736 4.93206 8.12673 4.90229L8.19955 4.67226L8.00544 4.52894C7.98033 4.51034 7.99326 4.4705 8.02451 4.47026L8.2658 4.46843L8.34212 4.23952C8.35197 4.20987 8.39384 4.20987 8.40376 4.23952Z" fill="#F5F5F5"/>
<path d="M8.40376 5.43676L8.48009 5.66566L8.72138 5.6675C8.75263 5.66777 8.76556 5.70758 8.74044 5.72617L8.54634 5.86953L8.61915 6.09957C8.62861 6.12934 8.59466 6.15402 8.56923 6.13582L8.37294 5.99551L8.17665 6.13582C8.15123 6.15398 8.11736 6.12934 8.12673 6.09957L8.19955 5.86953L8.00544 5.72617C7.98033 5.70758 7.99326 5.66777 8.02451 5.6675L8.2658 5.66566L8.34212 5.43676C8.35197 5.40715 8.39384 5.40715 8.40376 5.43676Z" fill="#F5F5F5"/>
<path d="M8.40376 6.63454L8.48009 6.86345L8.72138 6.86528C8.75263 6.86556 8.76556 6.90536 8.74044 6.92396L8.54634 7.06731L8.61915 7.29735C8.62861 7.32712 8.59466 7.35181 8.56923 7.3336L8.37294 7.19329L8.17665 7.3336C8.15123 7.35177 8.11736 7.32716 8.12673 7.29735L8.19955 7.06731L8.00544 6.92396C7.98033 6.90536 7.99326 6.86556 8.02451 6.86528L8.2658 6.86345L8.34212 6.63454C8.35197 6.60489 8.39384 6.60489 8.40376 6.63454Z" fill="#F5F5F5"/>
<path d="M8.40376 7.83181L8.48009 8.06071L8.72138 8.06255C8.75263 8.06282 8.76556 8.10267 8.74044 8.12122L8.54634 8.26458L8.61915 8.49462C8.62861 8.52438 8.59466 8.54907 8.56923 8.53087L8.37294 8.39056L8.17665 8.53087C8.15123 8.54903 8.11736 8.52438 8.12673 8.49462L8.19955 8.26458L8.00544 8.12122C7.98033 8.1027 7.99326 8.06282 8.02451 8.06255L8.2658 8.06071L8.34212 7.83181C8.35197 7.80216 8.39384 7.80216 8.40376 7.83181Z" fill="#F5F5F5"/>
<path d="M8.40376 9.02904L8.48009 9.25795L8.72138 9.25979C8.75263 9.26006 8.76556 9.29986 8.74044 9.31846L8.54634 9.46182L8.61915 9.69185C8.62861 9.72162 8.59466 9.74631 8.56923 9.72811L8.37294 9.58779L8.17665 9.72811C8.15123 9.74627 8.11736 9.72162 8.12673 9.69185L8.19955 9.46182L8.00544 9.31846C7.98033 9.29986 7.99326 9.26006 8.02451 9.25979L8.2658 9.25795L8.34212 9.02904C8.35197 8.99943 8.39384 8.99943 8.40376 9.02904Z" fill="#F5F5F5"/>
</svg>
