<svg width="132" height="21" viewBox="0 0 132 21" fill="none" xmlns="http://www.w3.org/2000/svg">
<g clip-path="url(#clip0_31_305)">
<path d="M13.6639 8.08315H20.2938V20.9998H9.48765C8.12199 20.9998 6.85879 20.7323 5.69722 20.1964C4.53566 19.661 3.5351 18.9247 2.69554 17.9867C1.85557 17.0496 1.19653 15.9372 0.717997 14.6492C0.239061 13.3624 0 11.9667 0 10.4624C0 8.95808 0.239061 7.58388 0.717997 6.33694C1.19653 5.09081 1.85557 4.0191 2.69554 3.12303C3.5351 2.22695 4.53566 1.53701 5.69722 1.05279C6.85838 0.568974 8.12199 0.32666 9.48765 0.32666H20.765L17.61 5.70351H9.48765C8.8286 5.70351 8.21631 5.82711 7.65118 6.0743C7.08606 6.32149 6.59533 6.67195 6.17982 7.12487C5.7639 7.57819 5.43824 8.10876 5.20284 8.71617C4.96744 9.32399 4.84994 9.99848 4.84994 10.7401C4.84994 11.4816 4.96337 12.1565 5.19145 12.764C5.41873 13.3718 5.74073 13.8918 6.15664 14.3244C6.57216 14.7569 7.06288 15.092 7.62801 15.3286C8.19314 15.5656 8.81275 15.6839 9.48805 15.6839H15.4443L16.2602 12.6863H17.2006L13.6639 8.08193V8.08315Z" fill="white"/>
<path d="M28.0393 21.0002H23.1658V10.9629L28.0393 0.32666V20.9998V21.0002Z" fill="white"/>
<path d="M12.2136 8.08301H20.3067L14.4062 21L15.691 12.6805L12.2136 10.2724V8.08301Z" fill="#ED1C24"/>
<path d="M21.3757 0.32666H28.0394L23.1813 10.9625L24.2388 4.11221L21.3757 2.12938V0.32666Z" fill="#ED1C24"/>
<path d="M76.8006 21.0001C76.4156 21.0001 76.0358 20.9342 75.6606 20.8025C75.2853 20.6704 74.8669 20.3723 74.4051 19.906L62.5707 8.72216V20.6655H57.1443V3.79904C57.1443 3.13065 57.2354 2.55292 57.4187 2.06666C57.6013 1.58041 57.842 1.18522 58.1404 0.881519C58.4384 0.577407 58.7848 0.355015 59.1796 0.213123C59.5739 0.0716375 59.9829 0.000488281 60.4062 0.000488281C60.7713 0.000488281 61.1421 0.0663521 61.5173 0.19808C61.8926 0.330214 62.3207 0.628634 62.8017 1.09456L74.6364 12.2784V0.33428H80.0917V17.1706C80.0917 17.839 80.0003 18.4168 79.8177 18.903C79.6348 19.3893 79.3941 19.7893 79.0961 20.1036C78.7976 20.4179 78.4464 20.646 78.0426 20.7874C77.6385 20.9289 77.2246 21.0001 76.8014 21.0001H76.8006Z" fill="white"/>
<path d="M45.4514 12.5511C45.7136 13.0374 45.9876 13.5594 46.2734 14.1164C46.5588 14.6738 46.8097 15.1345 47.026 15.4991L49.7553 20.6654H55.5001L45.8217 2.27921C45.4819 1.63115 45.0692 1.08919 44.5829 0.653353C44.0967 0.21792 43.4909 0 42.7656 0C42.0403 0 41.3841 0.23337 40.8901 0.698889C40.3961 1.16522 39.9871 1.69173 39.6631 2.27921L29.7302 20.6654H35.4026L42.6729 7.17184L45.4514 12.5511Z" fill="white"/>
<path d="M102.588 0.32666L106.789 4.64643H95.9613V20.9998H91.0878V4.64643H82.3535V0.32666H102.588Z" fill="white"/>
<path d="M48.3639 11.5337H37.0874V16.8516H48.3639V11.5337Z" fill="white"/>
<path d="M131.315 0.331543L124.545 15.1538L121.582 20.9945L115.605 20.964L119.263 14.4626L105.096 0.331543H112.457L121.662 9.48377L126.183 0.331543H131.315Z" fill="white"/>
<path d="M122.028 0.331543H131.315L124.544 15.1538L126.018 5.60716L122.028 2.84372V0.331543Z" fill="#ED1C24"/>
</g>
<defs>
<clipPath id="clip0_31_305">
<rect width="131.315" height="21" fill="white"/>
</clipPath>
</defs>
</svg>
