<svg width="140" height="22" viewBox="0 0 140 22" fill="none" xmlns="http://www.w3.org/2000/svg">
<g clip-path="url(#clip0_31_341)">
<path d="M14.5676 8.46764H21.636V21.9994H10.1151C8.65916 21.9994 7.31241 21.7191 6.07403 21.1577C4.83564 20.5968 3.76891 19.8254 2.87382 18.8428C1.9783 17.861 1.27566 16.6957 0.765484 15.3464C0.254872 13.9983 0 12.5361 0 10.9602C0 9.38423 0.254872 7.9446 0.765484 6.63828C1.27566 5.33281 1.9783 4.21007 2.87382 3.27133C3.76891 2.33258 4.83564 1.60978 6.07403 1.1025C7.31198 0.59565 8.65916 0.341797 10.1151 0.341797H22.1384L18.7747 5.97469H10.1151C9.41251 5.97469 8.75972 6.10417 8.15722 6.36313C7.55472 6.6221 7.03153 6.98924 6.58854 7.46373C6.14511 7.93864 5.79792 8.49447 5.54694 9.13081C5.29597 9.76757 5.1707 10.4742 5.1707 11.2511C5.1707 12.028 5.29164 12.735 5.53481 13.3713C5.77711 14.0081 6.12041 14.5529 6.56383 15.0061C7.00683 15.4592 7.53001 15.8102 8.13251 16.0581C8.73502 16.3064 9.39561 16.4304 10.1156 16.4304H16.4657L17.3357 13.29H18.3382L14.5676 8.46636V8.46764Z" fill="#231F20"/>
<path d="M29.8937 21.9998H24.6979V11.4845L29.8937 0.341797V21.9994V21.9998Z" fill="#231F20"/>
<path d="M13.0215 8.46777H21.6499L15.3591 21.9999L16.7288 13.2842L13.0215 10.7614V8.46777Z" fill="#ED1C24"/>
<path d="M22.7894 0.341797H29.8938L24.7144 11.4841L25.8418 4.30761L22.7894 2.23036V0.341797Z" fill="#ED1C24"/>
<path d="M81.8799 22.0001C81.4694 22.0001 81.0646 21.9311 80.6645 21.7931C80.2644 21.6546 79.8184 21.3424 79.326 20.8539L66.7089 9.13748V21.6495H60.9236V3.97993C60.9236 3.2797 61.0207 2.67446 61.2162 2.16505C61.4108 1.65564 61.6674 1.24164 61.9856 0.923473C62.3033 0.604879 62.6726 0.371897 63.0935 0.223248C63.5139 0.0750256 63.95 0.000488281 64.4012 0.000488281C64.7905 0.000488281 65.1858 0.0694885 65.5858 0.207489C65.9859 0.345915 66.4424 0.658546 66.9551 1.14666L79.5726 12.8631V0.350175H85.3887V17.9883C85.3887 18.6885 85.2912 19.2937 85.0966 19.8031C84.9015 20.3125 84.6449 20.7317 84.3272 21.0609C84.0091 21.3901 83.6346 21.6291 83.2041 21.7773C82.7733 21.9255 82.332 22.0001 81.8808 22.0001H81.8799Z" fill="#231F20"/>
<path d="M48.4574 13.1488C48.737 13.6582 49.0292 14.2051 49.3339 14.7886C49.6382 15.3726 49.9056 15.8551 50.1362 16.2372L53.046 21.6495H59.1707L48.8523 2.38775C48.4899 1.70882 48.05 1.14106 47.5316 0.684465C47.0132 0.228297 46.3673 0 45.594 0C44.8207 0 44.1211 0.244482 43.5945 0.732169C43.0678 1.22071 42.6318 1.77228 42.2863 2.38775L31.6965 21.6495H37.7441L45.4952 7.51336L48.4574 13.1488Z" fill="#231F20"/>
<path d="M109.373 0.341797L113.852 4.86727H102.308V21.9994H97.112V4.86727H87.8V0.341797H109.373Z" fill="#231F20"/>
<path d="M51.5628 12.083H39.5404V17.6541H51.5628V12.083Z" fill="#231F20"/>
<path d="M140 0.347656L132.782 15.8757L129.623 21.9946L123.251 21.9626L127.151 15.1516L112.047 0.347656H119.894L129.708 9.93571L134.528 0.347656H140Z" fill="#231F20"/>
<path d="M130.099 0.347656H140L132.781 15.8757L134.353 5.87449L130.099 2.97946V0.347656Z" fill="#ED1C24"/>
</g>
<defs>
<clipPath id="clip0_31_341">
<rect width="140" height="22" fill="white"/>
</clipPath>
</defs>
</svg>
